<?xml version="1.0" encoding="iso-8859-1"?>
<!-- Generator: Adobe Illustrator 19.0.0, SVG Export Plug-In . SVG Version: 6.00 Build 0)  -->
<svg version="1.1" id="Capa_1" xmlns="http://www.w3.org/2000/svg" xmlns:xlink="http://www.w3.org/1999/xlink" x="0px" y="0px"
	 viewBox="0 0 512 512" style="enable-background:new 0 0 512 512;" xml:space="preserve">
<path style="fill:#BF6100;" d="M241.437,68.651c-0.673-2.723-6.149-27.177,8.315-47.008C259.213,8.671,274.283,1.389,294.539,0
	l2.051,29.932c-11.001,0.754-18.604,3.913-22.6,9.392c-6.252,8.573-3.459,22.008-3.427,22.139L241.437,68.651z"/>
<path style="fill:#FF0435;" d="M323.425,117.483c0,36.993-29.932,67.125-66.855,67.425c-0.19,0.01-0.38,0.01-0.57,0.01
	c-37.183,0-67.425-30.252-67.425-67.435S218.817,50.058,256,50.058c0.19,0,0.38,0,0.57,0.01
	C293.493,50.368,323.425,80.491,323.425,117.483z"/>
<path style="fill:#C1001B;" d="M256.57,184.908V50.068c36.922,0.3,66.855,30.422,66.855,67.415S293.493,184.608,256.57,184.908z"/>
<rect x="93.077" y="154.921" style="fill:#FF738D;" width="325.842" height="283.709"/>
<rect x="256.568" y="154.921" style="fill:#FF3B62;" width="162.351" height="283.709"/>
<path style="fill:#C9E7F8;" d="M450.203,408.623v41.283c0,34.232-27.862,62.094-62.104,62.094H123.901
	c-34.242,0-62.104-27.862-62.104-62.094v-41.283H450.203z"/>
<path style="fill:#B7DFF7;" d="M450.203,408.623v41.283c0,34.232-27.862,62.094-62.104,62.094H256.57V408.623H450.203z"/>
<path style="fill:#FFDAA8;" d="M418.921,154.916v105.207l-3.15,3.07c-23.472,22.882-56.334,23.012-79.905,0.31l-0.87-0.84
	c-12.001-11.551-26.302-11.451-38.243,0.28c-11.801,11.581-25.992,17.391-40.183,17.421c-14.061,0.03-28.122-5.62-39.893-16.951
	l-0.96-0.92c-11.921-11.481-26.152-11.451-38.063,0.09l-0.89,0.86c-11.751,11.381-25.852,17.081-39.943,17.081
	c-14.041,0-28.072-5.64-39.793-16.931l-3.95-3.8V154.916L418.921,154.916L418.921,154.916z"/>
<path style="fill:#FFC373;" d="M418.921,154.916v105.207l-3.15,3.07c-23.472,22.882-56.334,23.012-79.905,0.31l-0.87-0.84
	c-12.001-11.551-26.302-11.451-38.243,0.28c-11.801,11.581-25.992,17.391-40.183,17.421V154.916H418.921z"/>
<g>
</g>
<g>
</g>
<g>
</g>
<g>
</g>
<g>
</g>
<g>
</g>
<g>
</g>
<g>
</g>
<g>
</g>
<g>
</g>
<g>
</g>
<g>
</g>
<g>
</g>
<g>
</g>
<g>
</g>
</svg>
